<svg xmlns="http://www.w3.org/2000/svg" xmlns:xlink="http://www.w3.org/1999/xlink" width="500" zoomAndPan="magnify" viewBox="0 0 375 374.999991" height="500" preserveAspectRatio="xMidYMid meet" version="1.0"><defs><g/><clipPath id="023dbfe699"><path d="M 210 37.5 L 288.191406 37.5 L 288.191406 177 L 210 177 Z M 210 37.5 " clip-rule="nonzero"/></clipPath><clipPath id="61bdaf67b9"><path d="M 86.441406 54 L 244 54 L 244 161 L 86.441406 161 Z M 86.441406 54 " clip-rule="nonzero"/></clipPath><clipPath id="944affa4d0"><path d="M 89 185 L 200 185 L 200 198 L 89 198 Z M 89 185 " clip-rule="nonzero"/></clipPath></defs><g clip-path="url(#023dbfe699)"><path fill="#231f20" d="M 276.519531 37.496094 L 221.960938 37.496094 C 221.203125 37.496094 220.457031 37.570312 219.714844 37.714844 C 218.972656 37.863281 218.25 38.082031 217.550781 38.367188 C 216.851562 38.65625 216.1875 39.011719 215.554688 39.429688 C 214.925781 39.847656 214.339844 40.324219 213.804688 40.855469 C 213.265625 41.390625 212.785156 41.96875 212.359375 42.597656 C 211.933594 43.226562 211.574219 43.886719 211.277344 44.585938 C 210.980469 45.285156 210.753906 46.003906 210.601562 46.746094 C 210.445312 47.492188 210.363281 48.242188 210.351562 49 L 237.625 49 C 238.386719 49 239.140625 49.074219 239.890625 49.222656 C 240.636719 49.375 241.363281 49.59375 242.066406 49.886719 C 242.773438 50.179688 243.441406 50.539062 244.074219 50.964844 C 244.707031 51.386719 245.292969 51.871094 245.832031 52.414062 C 246.371094 52.953125 246.855469 53.542969 247.277344 54.175781 C 247.699219 54.8125 248.058594 55.484375 248.351562 56.191406 C 248.640625 56.898438 248.863281 57.625 249.011719 58.375 C 249.160156 59.128906 249.234375 59.882812 249.234375 60.648438 L 249.234375 153.074219 C 249.234375 153.839844 249.160156 154.597656 249.011719 155.347656 C 248.863281 156.097656 248.640625 156.824219 248.351562 157.53125 C 248.058594 158.238281 247.699219 158.910156 247.277344 159.546875 C 246.855469 160.183594 246.371094 160.769531 245.832031 161.3125 C 245.292969 161.851562 244.707031 162.335938 244.074219 162.761719 C 243.441406 163.1875 242.773438 163.542969 242.066406 163.835938 C 241.363281 164.128906 240.636719 164.351562 239.890625 164.5 C 239.140625 164.648438 238.386719 164.722656 237.625 164.722656 L 210.347656 164.722656 L 210.347656 165.339844 C 210.347656 166.105469 210.421875 166.863281 210.570312 167.613281 C 210.71875 168.363281 210.9375 169.089844 211.230469 169.796875 C 211.519531 170.503906 211.878906 171.175781 212.300781 171.8125 C 212.726562 172.449219 213.207031 173.035156 213.746094 173.578125 C 214.285156 174.117188 214.871094 174.601562 215.503906 175.027344 C 216.136719 175.449219 216.808594 175.808594 217.511719 176.101562 C 218.214844 176.394531 218.941406 176.617188 219.6875 176.765625 C 220.4375 176.914062 221.191406 176.988281 221.953125 176.988281 L 276.519531 176.988281 C 277.285156 176.988281 278.039062 176.914062 278.785156 176.765625 C 279.535156 176.617188 280.257812 176.394531 280.964844 176.101562 C 281.667969 175.808594 282.335938 175.449219 282.96875 175.027344 C 283.605469 174.601562 284.191406 174.117188 284.730469 173.578125 C 285.269531 173.035156 285.75 172.449219 286.171875 171.8125 C 286.597656 171.175781 286.953125 170.503906 287.246094 169.796875 C 287.539062 169.089844 287.757812 168.363281 287.90625 167.613281 C 288.054688 166.863281 288.128906 166.105469 288.128906 165.339844 L 288.128906 49.152344 C 288.128906 48.386719 288.054688 47.628906 287.90625 46.878906 C 287.757812 46.128906 287.539062 45.398438 287.246094 44.691406 C 286.957031 43.984375 286.597656 43.3125 286.175781 42.675781 C 285.753906 42.039062 285.269531 41.453125 284.730469 40.910156 C 284.191406 40.367188 283.605469 39.886719 282.972656 39.460938 C 282.339844 39.035156 281.667969 38.675781 280.964844 38.382812 C 280.261719 38.089844 279.535156 37.867188 278.785156 37.71875 C 278.039062 37.570312 277.285156 37.496094 276.519531 37.496094 Z M 267.492188 56.332031 C 267.492188 56.109375 267.53125 55.898438 267.617188 55.695312 C 267.699219 55.496094 267.820312 55.316406 267.972656 55.160156 C 268.128906 55.003906 268.308594 54.886719 268.507812 54.800781 C 268.710938 54.71875 268.921875 54.675781 269.140625 54.675781 C 269.359375 54.675781 269.570312 54.71875 269.773438 54.800781 C 269.972656 54.886719 270.152344 55.003906 270.304688 55.160156 C 270.460938 55.316406 270.582031 55.496094 270.664062 55.695312 C 270.746094 55.898438 270.789062 56.109375 270.789062 56.332031 L 270.789062 64.117188 C 270.789062 64.335938 270.746094 64.546875 270.664062 64.75 C 270.582031 64.953125 270.460938 65.132812 270.304688 65.289062 C 270.152344 65.445312 269.972656 65.5625 269.773438 65.648438 C 269.570312 65.730469 269.359375 65.773438 269.140625 65.773438 C 268.921875 65.773438 268.710938 65.730469 268.507812 65.648438 C 268.308594 65.5625 268.128906 65.445312 267.972656 65.289062 C 267.820312 65.132812 267.699219 64.953125 267.617188 64.75 C 267.53125 64.546875 267.492188 64.335938 267.492188 64.117188 Z M 265.738281 144.398438 C 265.738281 144.855469 265.652344 145.296875 265.480469 145.71875 C 265.304688 146.144531 265.058594 146.519531 264.734375 146.84375 C 264.414062 147.167969 264.039062 147.421875 263.617188 147.597656 C 263.195312 147.773438 262.757812 147.863281 262.300781 147.863281 C 261.84375 147.863281 261.402344 147.773438 260.980469 147.601562 C 260.558594 147.425781 260.1875 147.175781 259.863281 146.851562 C 259.539062 146.523438 259.289062 146.152344 259.117188 145.726562 C 258.941406 145.304688 258.851562 144.863281 258.851562 144.402344 L 258.851562 88.132812 C 258.851562 87.675781 258.941406 87.234375 259.117188 86.808594 C 259.289062 86.386719 259.539062 86.011719 259.863281 85.6875 C 260.1875 85.363281 260.558594 85.113281 260.980469 84.9375 C 261.402344 84.761719 261.84375 84.675781 262.300781 84.675781 C 262.757812 84.675781 263.195312 84.765625 263.617188 84.941406 C 264.039062 85.117188 264.410156 85.367188 264.734375 85.691406 C 265.054688 86.015625 265.304688 86.390625 265.480469 86.816406 C 265.652344 87.238281 265.738281 87.679688 265.738281 88.136719 Z M 268.585938 72.835938 C 267.816406 72.777344 267.070312 72.609375 266.351562 72.324219 C 265.628906 72.039062 264.96875 71.652344 264.367188 71.167969 C 263.765625 70.679688 263.25 70.113281 262.820312 69.46875 C 262.386719 68.824219 262.0625 68.128906 261.84375 67.386719 C 261.625 66.640625 261.523438 65.878906 261.535156 65.105469 C 261.546875 64.328125 261.671875 63.570312 261.914062 62.835938 C 262.15625 62.097656 262.503906 61.414062 262.953125 60.78125 C 263.402344 60.152344 263.933594 59.601562 264.550781 59.132812 C 264.90625 58.871094 265.277344 58.835938 265.671875 59.035156 C 266.066406 59.234375 266.261719 59.554688 266.261719 59.996094 L 266.261719 61.5625 C 266.257812 61.847656 266.15625 62.089844 265.957031 62.292969 C 265.660156 62.617188 265.417969 62.980469 265.226562 63.378906 C 265.039062 63.777344 264.914062 64.195312 264.855469 64.632812 C 264.796875 65.070312 264.800781 65.507812 264.875 65.941406 C 264.945312 66.375 265.082031 66.792969 265.28125 67.183594 C 265.480469 67.578125 265.734375 67.933594 266.042969 68.246094 C 266.351562 68.5625 266.699219 68.824219 267.085938 69.035156 C 267.472656 69.242188 267.882812 69.386719 268.316406 69.472656 C 268.746094 69.554688 269.179688 69.570312 269.617188 69.519531 C 270.425781 69.429688 271.152344 69.132812 271.792969 68.632812 C 272.433594 68.132812 272.898438 67.5 273.183594 66.734375 C 273.464844 65.972656 273.53125 65.1875 273.375 64.386719 C 273.214844 63.589844 272.863281 62.886719 272.308594 62.289062 C 272.121094 62.085938 272.023438 61.839844 272.023438 61.5625 L 272.023438 59.996094 C 272.023438 59.546875 272.222656 59.226562 272.625 59.03125 C 273.023438 58.832031 273.398438 58.871094 273.75 59.144531 C 274.402344 59.644531 274.960938 60.234375 275.425781 60.914062 C 275.886719 61.589844 276.230469 62.328125 276.457031 63.117188 C 276.683594 63.910156 276.78125 64.714844 276.746094 65.539062 C 276.710938 66.359375 276.550781 67.15625 276.261719 67.925781 C 275.96875 68.695312 275.566406 69.398438 275.046875 70.039062 C 274.53125 70.675781 273.925781 71.21875 273.234375 71.660156 C 272.542969 72.101562 271.800781 72.421875 271.003906 72.625 C 270.210938 72.824219 269.402344 72.894531 268.585938 72.835938 Z M 278.460938 144.398438 C 278.464844 144.855469 278.375 145.300781 278.199219 145.722656 C 278.027344 146.148438 277.777344 146.523438 277.453125 146.851562 C 277.128906 147.175781 276.753906 147.425781 276.332031 147.601562 C 275.90625 147.777344 275.464844 147.863281 275.007812 147.863281 C 274.550781 147.863281 274.109375 147.777344 273.6875 147.601562 C 273.265625 147.425781 272.894531 147.175781 272.570312 146.851562 C 272.246094 146.527344 271.996094 146.152344 271.824219 145.726562 C 271.648438 145.304688 271.558594 144.863281 271.5625 144.402344 L 271.5625 88.132812 C 271.5625 87.675781 271.648438 87.234375 271.824219 86.808594 C 271.996094 86.386719 272.246094 86.011719 272.570312 85.6875 C 272.894531 85.363281 273.265625 85.113281 273.6875 84.9375 C 274.109375 84.761719 274.550781 84.675781 275.007812 84.675781 C 275.464844 84.675781 275.90625 84.761719 276.328125 84.9375 C 276.75 85.113281 277.121094 85.363281 277.445312 85.6875 C 277.769531 86.011719 278.019531 86.386719 278.191406 86.808594 C 278.367188 87.234375 278.457031 87.675781 278.457031 88.132812 Z M 278.460938 144.398438 " fill-opacity="1" fill-rule="nonzero"/></g><g clip-path="url(#61bdaf67b9)"><path fill="#231f20" d="M 101.359375 160.449219 L 228.722656 160.449219 C 229.699219 160.449219 230.664062 160.355469 231.617188 160.164062 C 232.574219 159.972656 233.5 159.6875 234.402344 159.3125 C 235.300781 158.9375 236.15625 158.480469 236.964844 157.9375 C 237.777344 157.394531 238.527344 156.777344 239.214844 156.085938 C 239.902344 155.394531 240.519531 154.640625 241.058594 153.828125 C 241.601562 153.015625 242.058594 152.15625 242.433594 151.253906 C 242.804688 150.351562 243.089844 149.421875 243.277344 148.460938 C 243.46875 147.503906 243.566406 146.535156 243.566406 145.558594 L 243.566406 69.09375 C 243.566406 68.117188 243.46875 67.148438 243.277344 66.191406 C 243.089844 65.230469 242.804688 64.300781 242.433594 63.398438 C 242.058594 62.492188 241.601562 61.636719 241.058594 60.824219 C 240.519531 60.011719 239.902344 59.257812 239.214844 58.566406 C 238.527344 57.875 237.777344 57.257812 236.964844 56.714844 C 236.15625 56.171875 235.300781 55.714844 234.402344 55.339844 C 233.5 54.964844 232.574219 54.679688 231.617188 54.488281 C 230.664062 54.296875 229.699219 54.203125 228.722656 54.199219 L 101.359375 54.199219 C 100.386719 54.203125 99.421875 54.296875 98.464844 54.488281 C 97.511719 54.679688 96.582031 54.964844 95.683594 55.339844 C 94.785156 55.714844 93.929688 56.171875 93.117188 56.714844 C 92.308594 57.257812 91.558594 57.875 90.871094 58.566406 C 90.183594 59.257812 89.566406 60.011719 89.023438 60.824219 C 88.484375 61.636719 88.027344 62.496094 87.652344 63.398438 C 87.28125 64.300781 86.996094 65.230469 86.808594 66.191406 C 86.617188 67.148438 86.519531 68.117188 86.519531 69.09375 L 86.519531 145.558594 C 86.519531 146.535156 86.617188 147.503906 86.804688 148.460938 C 86.996094 149.421875 87.28125 150.351562 87.652344 151.253906 C 88.027344 152.15625 88.484375 153.015625 89.023438 153.828125 C 89.566406 154.640625 90.179688 155.394531 90.871094 156.085938 C 91.558594 156.777344 92.308594 157.394531 93.117188 157.9375 C 93.929688 158.480469 94.78125 158.9375 95.683594 159.3125 C 96.582031 159.6875 97.511719 159.972656 98.464844 160.164062 C 99.421875 160.355469 100.386719 160.449219 101.359375 160.449219 Z M 91.503906 69.09375 C 91.503906 68.445312 91.570312 67.800781 91.695312 67.164062 C 91.824219 66.527344 92.011719 65.910156 92.261719 65.308594 C 92.507812 64.710938 92.8125 64.140625 93.175781 63.601562 C 93.535156 63.0625 93.941406 62.5625 94.402344 62.101562 C 94.859375 61.644531 95.355469 61.234375 95.894531 60.875 C 96.433594 60.511719 97 60.207031 97.597656 59.957031 C 98.195312 59.710938 98.8125 59.523438 99.449219 59.394531 C 100.082031 59.269531 100.722656 59.203125 101.371094 59.203125 L 228.722656 59.203125 C 229.371094 59.203125 230.011719 59.269531 230.648438 59.394531 C 231.28125 59.523438 231.898438 59.710938 232.496094 59.957031 C 233.09375 60.207031 233.660156 60.511719 234.199219 60.875 C 234.738281 61.234375 235.234375 61.644531 235.695312 62.101562 C 236.152344 62.5625 236.5625 63.0625 236.921875 63.601562 C 237.28125 64.140625 237.585938 64.710938 237.832031 65.308594 C 238.082031 65.910156 238.269531 66.527344 238.398438 67.164062 C 238.523438 67.800781 238.589844 68.445312 238.589844 69.09375 L 238.589844 145.558594 C 238.589844 146.207031 238.523438 146.851562 238.398438 147.488281 C 238.269531 148.125 238.082031 148.742188 237.832031 149.339844 C 237.585938 149.941406 237.28125 150.511719 236.921875 151.050781 C 236.5625 151.589844 236.152344 152.089844 235.695312 152.546875 C 235.234375 153.007812 234.738281 153.417969 234.199219 153.777344 C 233.660156 154.140625 233.09375 154.445312 232.496094 154.691406 C 231.898438 154.941406 231.28125 155.128906 230.648438 155.257812 C 230.011719 155.382812 229.371094 155.449219 228.722656 155.449219 L 101.359375 155.449219 C 100.714844 155.445312 100.074219 155.382812 99.4375 155.253906 C 98.804688 155.128906 98.1875 154.9375 97.589844 154.691406 C 96.996094 154.441406 96.425781 154.136719 95.890625 153.773438 C 95.351562 153.414062 94.855469 153.003906 94.398438 152.542969 C 93.941406 152.085938 93.53125 151.585938 93.171875 151.046875 C 92.8125 150.507812 92.507812 149.9375 92.261719 149.339844 C 92.011719 148.738281 91.824219 148.121094 91.695312 147.484375 C 91.570312 146.847656 91.503906 146.207031 91.503906 145.558594 Z M 91.503906 69.09375 " fill-opacity="1" fill-rule="nonzero"/></g><path fill="#231f20" d="M 156.445312 164.144531 C 155.859375 164.144531 155.273438 164.203125 154.695312 164.320312 C 154.121094 164.433594 153.558594 164.605469 153.015625 164.828125 C 152.472656 165.054688 151.953125 165.332031 151.464844 165.660156 C 150.976562 165.988281 150.523438 166.363281 150.105469 166.78125 C 149.691406 167.195312 149.316406 167.652344 148.992188 168.140625 C 148.664062 168.632812 148.386719 169.152344 148.160156 169.699219 C 147.9375 170.242188 147.765625 170.804688 147.652344 171.386719 C 147.535156 171.964844 147.476562 172.550781 147.476562 173.140625 L 147.476562 176.832031 C 147.476562 177.144531 147.507812 177.449219 147.566406 177.753906 C 147.628906 178.058594 147.71875 178.351562 147.835938 178.640625 C 147.953125 178.925781 148.097656 179.199219 148.269531 179.457031 C 148.441406 179.714844 148.636719 179.953125 148.855469 180.171875 C 149.074219 180.390625 149.3125 180.585938 149.566406 180.757812 C 149.824219 180.929688 150.097656 181.078125 150.382812 181.195312 C 150.667969 181.3125 150.960938 181.402344 151.265625 181.464844 C 151.566406 181.523438 151.875 181.554688 152.183594 181.554688 L 177.910156 181.554688 C 178.21875 181.554688 178.523438 181.523438 178.828125 181.464844 C 179.132812 181.402344 179.425781 181.3125 179.710938 181.195312 C 179.996094 181.074219 180.265625 180.929688 180.523438 180.757812 C 180.78125 180.585938 181.015625 180.390625 181.234375 180.171875 C 181.453125 179.953125 181.648438 179.714844 181.820312 179.457031 C 181.992188 179.199219 182.136719 178.925781 182.253906 178.640625 C 182.375 178.351562 182.460938 178.058594 182.523438 177.753906 C 182.582031 177.449219 182.613281 177.144531 182.613281 176.832031 L 182.613281 173.140625 C 182.613281 172.550781 182.554688 171.964844 182.441406 171.382812 C 182.324219 170.804688 182.15625 170.242188 181.929688 169.695312 C 181.707031 169.152344 181.429688 168.632812 181.101562 168.140625 C 180.773438 167.648438 180.402344 167.195312 179.988281 166.777344 C 179.570312 166.359375 179.117188 165.988281 178.628906 165.65625 C 178.136719 165.328125 177.621094 165.050781 177.078125 164.828125 C 176.535156 164.601562 175.972656 164.429688 175.394531 164.316406 C 174.816406 164.199219 174.234375 164.140625 173.644531 164.140625 Z M 156.445312 164.144531 " fill-opacity="1" fill-rule="nonzero"/><g clip-path="url(#944affa4d0)"><path fill="#231f20" d="M 197.550781 186.898438 C 197.394531 186.089844 196.863281 185.523438 196.261719 185.523438 L 92.054688 185.523438 C 91.449219 185.523438 90.921875 186.089844 90.761719 186.898438 L 89.058594 195.652344 C 88.824219 196.835938 89.464844 198.003906 90.347656 198.003906 L 197.964844 198.003906 C 198.84375 198.003906 199.488281 196.835938 199.257812 195.652344 Z M 197.550781 186.898438 " fill-opacity="1" fill-rule="nonzero"/></g><path fill="#231f20" d="M 214.578125 188.671875 L 209.851562 188.671875 C 209.53125 188.671875 209.214844 188.707031 208.898438 188.769531 C 208.585938 188.832031 208.28125 188.921875 207.984375 189.046875 C 207.691406 189.167969 207.410156 189.320312 207.144531 189.496094 C 206.878906 189.675781 206.632812 189.878906 206.40625 190.105469 C 206.179688 190.332031 205.976562 190.582031 205.800781 190.847656 C 205.621094 191.113281 205.472656 191.394531 205.347656 191.691406 C 205.226562 191.988281 205.132812 192.296875 205.070312 192.609375 C 205.007812 192.925781 204.976562 193.242188 204.976562 193.5625 L 204.976562 195.152344 C 204.976562 195.375 205.054688 195.566406 205.214844 195.726562 C 205.371094 195.882812 205.5625 195.960938 205.785156 195.960938 L 218.648438 195.960938 C 218.871094 195.960938 219.0625 195.882812 219.21875 195.726562 C 219.375 195.566406 219.453125 195.375 219.453125 195.152344 L 219.453125 193.5625 C 219.453125 193.242188 219.421875 192.925781 219.359375 192.609375 C 219.296875 192.296875 219.207031 191.988281 219.082031 191.691406 C 218.960938 191.394531 218.8125 191.113281 218.632812 190.847656 C 218.457031 190.578125 218.253906 190.332031 218.027344 190.105469 C 217.800781 189.878906 217.554688 189.675781 217.289062 189.496094 C 217.023438 189.320312 216.742188 189.167969 216.445312 189.046875 C 216.148438 188.921875 215.84375 188.828125 215.53125 188.765625 C 215.214844 188.703125 214.898438 188.671875 214.578125 188.671875 Z M 214.578125 188.671875 " fill-opacity="1" fill-rule="nonzero"/><g fill="#000000" fill-opacity="1"><g transform="translate(140.788827, 243.021781)"><g><path d="M 19.703125 -13.65625 C 21.859375 -12.28125 22.9375 -10.460938 22.9375 -8.203125 C 22.9375 -5.953125 21.765625 -3.953125 19.421875 -2.203125 C 17.085938 -0.453125 14.476562 0.421875 11.59375 0.421875 C 8.707031 0.421875 6.226562 -0.3125 4.15625 -1.78125 C 2.082031 -3.25 1.046875 -5.359375 1.046875 -8.109375 L 1.046875 -8.5625 L 6.390625 -8.5625 L 6.390625 -7.640625 C 6.390625 -5.765625 6.910156 -4.203125 7.953125 -2.953125 C 9.003906 -1.710938 10.289062 -1.09375 11.8125 -1.09375 C 13.34375 -1.09375 14.578125 -1.570312 15.515625 -2.53125 C 16.453125 -3.5 16.921875 -4.835938 16.921875 -6.546875 C 16.921875 -7.835938 15.941406 -9.085938 13.984375 -10.296875 L 5.59375 -15.40625 C 3.257812 -16.8125 2.09375 -18.773438 2.09375 -21.296875 C 2.09375 -23.335938 3.046875 -25.195312 4.953125 -26.875 C 6.859375 -28.5625 9.210938 -29.40625 12.015625 -29.40625 C 13.492188 -29.40625 14.800781 -29.179688 15.9375 -28.734375 C 17.070312 -28.285156 17.921875 -27.722656 18.484375 -27.046875 C 19.515625 -25.785156 20.03125 -24.734375 20.03125 -23.890625 L 20.03125 -23.640625 L 18.609375 -23.640625 C 18.609375 -24.597656 18.082031 -25.550781 17.03125 -26.5 C 15.976562 -27.457031 14.703125 -27.9375 13.203125 -27.9375 C 11.710938 -27.9375 10.429688 -27.472656 9.359375 -26.546875 C 8.296875 -25.617188 7.765625 -24.425781 7.765625 -22.96875 C 7.765625 -22.101562 8.066406 -21.363281 8.671875 -20.75 C 9.273438 -20.132812 10.09375 -19.519531 11.125 -18.90625 Z M 19.703125 -13.65625 "/></g></g></g><g fill="#000000" fill-opacity="1"><g transform="translate(173.206003, 243.021781)"><g><path d="M 25.65625 0 L 18.984375 0 L 18.984375 -4.625 C 18.453125 -3.082031 17.585938 -1.851562 16.390625 -0.9375 C 15.203125 -0.03125 13.882812 0.421875 12.4375 0.421875 C 9.40625 0.421875 6.992188 -0.519531 5.203125 -2.40625 C 3.410156 -4.300781 2.515625 -6.957031 2.515625 -10.375 L 2.515625 -28.984375 L 9.15625 -28.984375 L 9.15625 -8.28125 C 9.15625 -3.457031 10.566406 -1.046875 13.390625 -1.046875 C 14.960938 -1.046875 16.28125 -1.867188 17.34375 -3.515625 C 18.40625 -5.171875 18.9375 -7.21875 18.9375 -9.65625 L 18.9375 -28.984375 L 25.65625 -28.984375 Z M 25.65625 0 "/></g></g></g><g fill="#000000" fill-opacity="1"><g transform="translate(210.283865, 243.021781)"><g><path d="M 19.703125 -13.65625 C 21.859375 -12.28125 22.9375 -10.460938 22.9375 -8.203125 C 22.9375 -5.953125 21.765625 -3.953125 19.421875 -2.203125 C 17.085938 -0.453125 14.476562 0.421875 11.59375 0.421875 C 8.707031 0.421875 6.226562 -0.3125 4.15625 -1.78125 C 2.082031 -3.25 1.046875 -5.359375 1.046875 -8.109375 L 1.046875 -8.5625 L 6.390625 -8.5625 L 6.390625 -7.640625 C 6.390625 -5.765625 6.910156 -4.203125 7.953125 -2.953125 C 9.003906 -1.710938 10.289062 -1.09375 11.8125 -1.09375 C 13.34375 -1.09375 14.578125 -1.570312 15.515625 -2.53125 C 16.453125 -3.5 16.921875 -4.835938 16.921875 -6.546875 C 16.921875 -7.835938 15.941406 -9.085938 13.984375 -10.296875 L 5.59375 -15.40625 C 3.257812 -16.8125 2.09375 -18.773438 2.09375 -21.296875 C 2.09375 -23.335938 3.046875 -25.195312 4.953125 -26.875 C 6.859375 -28.5625 9.210938 -29.40625 12.015625 -29.40625 C 13.492188 -29.40625 14.800781 -29.179688 15.9375 -28.734375 C 17.070312 -28.285156 17.921875 -27.722656 18.484375 -27.046875 C 19.515625 -25.785156 20.03125 -24.734375 20.03125 -23.890625 L 20.03125 -23.640625 L 18.609375 -23.640625 C 18.609375 -24.597656 18.082031 -25.550781 17.03125 -26.5 C 15.976562 -27.457031 14.703125 -27.9375 13.203125 -27.9375 C 11.710938 -27.9375 10.429688 -27.472656 9.359375 -26.546875 C 8.296875 -25.617188 7.765625 -24.425781 7.765625 -22.96875 C 7.765625 -22.101562 8.066406 -21.363281 8.671875 -20.75 C 9.273438 -20.132812 10.09375 -19.519531 11.125 -18.90625 Z M 19.703125 -13.65625 "/></g></g></g><g fill="#000000" fill-opacity="1"><g transform="translate(104.567466, 283.046876)"><g><path d="M 0.421875 -0.546875 L 0.890625 -1.609375 C 1.171875 -1.359375 1.515625 -1.15625 1.921875 -1 C 2.328125 -0.851562 2.71875 -0.78125 3.09375 -0.78125 C 3.582031 -0.78125 4.019531 -0.914062 4.40625 -1.1875 C 4.800781 -1.46875 5 -1.875 5 -2.40625 C 5 -2.851562 4.847656 -3.234375 4.546875 -3.546875 C 4.253906 -3.859375 3.894531 -4.109375 3.46875 -4.296875 C 3.039062 -4.484375 2.617188 -4.675781 2.203125 -4.875 C 1.785156 -5.082031 1.425781 -5.375 1.125 -5.75 C 0.820312 -6.125 0.671875 -6.582031 0.671875 -7.125 C 0.671875 -7.894531 0.960938 -8.5 1.546875 -8.9375 C 2.140625 -9.375 2.835938 -9.59375 3.640625 -9.59375 C 4.484375 -9.59375 5.296875 -9.359375 6.078125 -8.890625 L 5.484375 -8.015625 C 4.878906 -8.453125 4.257812 -8.671875 3.625 -8.671875 C 3.132812 -8.671875 2.734375 -8.546875 2.421875 -8.296875 C 2.117188 -8.054688 1.96875 -7.703125 1.96875 -7.234375 C 1.96875 -6.960938 2.046875 -6.71875 2.203125 -6.5 C 2.367188 -6.289062 2.578125 -6.113281 2.828125 -5.96875 C 3.085938 -5.820312 3.367188 -5.675781 3.671875 -5.53125 C 3.984375 -5.394531 4.289062 -5.242188 4.59375 -5.078125 C 4.90625 -4.910156 5.1875 -4.722656 5.4375 -4.515625 C 5.695312 -4.304688 5.90625 -4.035156 6.0625 -3.703125 C 6.226562 -3.378906 6.3125 -3.003906 6.3125 -2.578125 C 6.3125 -1.691406 6 -1.015625 5.375 -0.546875 C 4.75 -0.078125 3.976562 0.15625 3.0625 0.15625 C 2.207031 0.15625 1.328125 -0.078125 0.421875 -0.546875 Z M 0.421875 -0.546875 "/></g></g></g><g fill="#000000" fill-opacity="1"><g transform="translate(112.781394, 283.046876)"><g><path d="M 2.34375 0 L 1.125 0 L 1.125 -8.609375 C 1.125 -8.617188 1.109375 -8.6875 1.078125 -8.8125 C 1.054688 -8.945312 1.03125 -9.082031 1 -9.21875 C 0.96875 -9.363281 0.953125 -9.445312 0.953125 -9.46875 L 2.34375 -9.46875 Z M 2.34375 0 "/></g></g></g><g fill="#000000" fill-opacity="1"><g transform="translate(117.772312, 283.046876)"><g><path d="M 0.421875 -0.546875 L 0.890625 -1.609375 C 1.171875 -1.359375 1.515625 -1.15625 1.921875 -1 C 2.328125 -0.851562 2.71875 -0.78125 3.09375 -0.78125 C 3.582031 -0.78125 4.019531 -0.914062 4.40625 -1.1875 C 4.800781 -1.46875 5 -1.875 5 -2.40625 C 5 -2.851562 4.847656 -3.234375 4.546875 -3.546875 C 4.253906 -3.859375 3.894531 -4.109375 3.46875 -4.296875 C 3.039062 -4.484375 2.617188 -4.675781 2.203125 -4.875 C 1.785156 -5.082031 1.425781 -5.375 1.125 -5.75 C 0.820312 -6.125 0.671875 -6.582031 0.671875 -7.125 C 0.671875 -7.894531 0.960938 -8.5 1.546875 -8.9375 C 2.140625 -9.375 2.835938 -9.59375 3.640625 -9.59375 C 4.484375 -9.59375 5.296875 -9.359375 6.078125 -8.890625 L 5.484375 -8.015625 C 4.878906 -8.453125 4.257812 -8.671875 3.625 -8.671875 C 3.132812 -8.671875 2.734375 -8.546875 2.421875 -8.296875 C 2.117188 -8.054688 1.96875 -7.703125 1.96875 -7.234375 C 1.96875 -6.960938 2.046875 -6.71875 2.203125 -6.5 C 2.367188 -6.289062 2.578125 -6.113281 2.828125 -5.96875 C 3.085938 -5.820312 3.367188 -5.675781 3.671875 -5.53125 C 3.984375 -5.394531 4.289062 -5.242188 4.59375 -5.078125 C 4.90625 -4.910156 5.1875 -4.722656 5.4375 -4.515625 C 5.695312 -4.304688 5.90625 -4.035156 6.0625 -3.703125 C 6.226562 -3.378906 6.3125 -3.003906 6.3125 -2.578125 C 6.3125 -1.691406 6 -1.015625 5.375 -0.546875 C 4.75 -0.078125 3.976562 0.15625 3.0625 0.15625 C 2.207031 0.15625 1.328125 -0.078125 0.421875 -0.546875 Z M 0.421875 -0.546875 "/></g></g></g><g fill="#000000" fill-opacity="1"><g transform="translate(125.986241, 283.046876)"><g><path d="M 4.359375 0 L 3.125 0 L 3.125 -8.5625 L 0.3125 -8.5625 L 0.3125 -9.46875 L 7.203125 -9.46875 L 7.203125 -8.5625 L 4.359375 -8.5625 Z M 4.359375 0 "/></g></g></g><g fill="#000000" fill-opacity="1"><g transform="translate(135.005924, 283.046876)"><g><path d="M 6.609375 0 L 1.125 0 L 1.125 -8.609375 C 1.125 -8.617188 1.109375 -8.6875 1.078125 -8.8125 C 1.046875 -8.945312 1.015625 -9.082031 0.984375 -9.21875 C 0.953125 -9.363281 0.9375 -9.445312 0.9375 -9.46875 L 6.609375 -9.46875 L 6.609375 -8.5625 L 2.328125 -8.5625 L 2.328125 -5.296875 L 5.65625 -5.296875 L 5.65625 -4.421875 L 2.328125 -4.421875 L 2.328125 -0.890625 L 6.609375 -0.890625 Z M 6.609375 0 "/></g></g></g><g fill="#000000" fill-opacity="1"><g transform="translate(143.648731, 283.046876)"><g><path d="M 9.765625 0 L 8.5625 0 L 8.5625 -7.734375 L 5.71875 0.015625 L 4.984375 0.015625 L 2.140625 -7.734375 L 2.140625 0 L 1.15625 0 L 1.15625 -8.609375 L 0.96875 -9.46875 L 2.71875 -9.46875 L 5.46875 -2.09375 L 8.1875 -9.46875 L 9.765625 -9.46875 Z M 9.765625 0 "/></g></g></g><g fill="#000000" fill-opacity="1"><g transform="translate(156.047382, 283.046876)"><g/></g></g><g fill="#000000" fill-opacity="1"><g transform="translate(160.544452, 283.046876)"><g><path d="M 7.0625 -3.359375 L 7.0625 -9.46875 L 8.0625 -9.46875 L 8.0625 -3.359375 C 8.0625 -2.253906 7.753906 -1.390625 7.140625 -0.765625 C 6.535156 -0.148438 5.675781 0.15625 4.5625 0.15625 C 3.457031 0.15625 2.609375 -0.125 2.015625 -0.6875 C 1.421875 -1.257812 1.125 -2.085938 1.125 -3.171875 L 1.125 -8.609375 L 0.921875 -9.46875 L 2.359375 -9.46875 L 2.359375 -3.171875 C 2.359375 -2.410156 2.546875 -1.8125 2.921875 -1.375 C 3.296875 -0.945312 3.859375 -0.734375 4.609375 -0.734375 C 5.398438 -0.734375 6.003906 -0.96875 6.421875 -1.4375 C 6.847656 -1.914062 7.0625 -2.554688 7.0625 -3.359375 Z M 7.0625 -3.359375 "/></g></g></g><g fill="#000000" fill-opacity="1"><g transform="translate(171.240626, 283.046876)"><g><path d="M -0.140625 2.75 L -0.296875 2.0625 C 0.0234375 2.019531 0.289062 1.90625 0.5 1.71875 C 0.707031 1.53125 0.851562 1.285156 0.9375 0.984375 C 1.019531 0.679688 1.070312 0.410156 1.09375 0.171875 C 1.125 -0.0664062 1.140625 -0.363281 1.140625 -0.71875 L 1.140625 -8.609375 L 0.953125 -9.46875 L 2.359375 -9.46875 L 2.359375 -0.796875 C 2.359375 -0.398438 2.335938 -0.0507812 2.296875 0.25 C 2.253906 0.5625 2.175781 0.867188 2.0625 1.171875 C 1.957031 1.472656 1.816406 1.726562 1.640625 1.9375 C 1.460938 2.144531 1.222656 2.320312 0.921875 2.46875 C 0.617188 2.613281 0.265625 2.707031 -0.140625 2.75 Z M -0.140625 2.75 "/></g></g></g><g fill="#000000" fill-opacity="1"><g transform="translate(176.231543, 283.046876)"><g><path d="M 2.34375 0 L 1.125 0 L 1.125 -8.609375 C 1.125 -8.617188 1.109375 -8.6875 1.078125 -8.8125 C 1.054688 -8.945312 1.03125 -9.082031 1 -9.21875 C 0.96875 -9.363281 0.953125 -9.445312 0.953125 -9.46875 L 2.34375 -9.46875 Z M 2.34375 0 "/></g></g></g><g fill="#000000" fill-opacity="1"><g transform="translate(181.22246, 283.046876)"><g><path d="M 7.984375 0 L 6.640625 0 L 5.546875 -3.25 L 2.4375 -3.25 L 1.328125 0 L 0.234375 0 L 3.515625 -9.46875 L 4.703125 -9.46875 Z M 5.25 -4.140625 L 4 -7.875 L 2.734375 -4.140625 Z M 5.25 -4.140625 "/></g></g></g><g fill="#000000" fill-opacity="1"><g transform="translate(190.93094, 283.046876)"><g><path d="M 8.15625 0.0625 L 7.390625 0.0625 L 2.125 -8 L 2.125 0 L 1.125 0 L 1.125 -8.609375 C 1.125 -8.617188 1.109375 -8.6875 1.078125 -8.8125 C 1.054688 -8.945312 1.03125 -9.082031 1 -9.21875 C 0.96875 -9.363281 0.953125 -9.445312 0.953125 -9.46875 L 2.5625 -9.46875 L 7.15625 -2.375 L 7.15625 -9.46875 L 8.15625 -9.46875 Z M 8.15625 0.0625 "/></g></g></g><g fill="#000000" fill-opacity="1"><g transform="translate(201.718083, 283.046876)"><g/></g></g><g fill="#000000" fill-opacity="1"><g transform="translate(206.215153, 283.046876)"><g><path d="M 0.421875 -0.546875 L 0.890625 -1.609375 C 1.171875 -1.359375 1.515625 -1.15625 1.921875 -1 C 2.328125 -0.851562 2.71875 -0.78125 3.09375 -0.78125 C 3.582031 -0.78125 4.019531 -0.914062 4.40625 -1.1875 C 4.800781 -1.46875 5 -1.875 5 -2.40625 C 5 -2.851562 4.847656 -3.234375 4.546875 -3.546875 C 4.253906 -3.859375 3.894531 -4.109375 3.46875 -4.296875 C 3.039062 -4.484375 2.617188 -4.675781 2.203125 -4.875 C 1.785156 -5.082031 1.425781 -5.375 1.125 -5.75 C 0.820312 -6.125 0.671875 -6.582031 0.671875 -7.125 C 0.671875 -7.894531 0.960938 -8.5 1.546875 -8.9375 C 2.140625 -9.375 2.835938 -9.59375 3.640625 -9.59375 C 4.484375 -9.59375 5.296875 -9.359375 6.078125 -8.890625 L 5.484375 -8.015625 C 4.878906 -8.453125 4.257812 -8.671875 3.625 -8.671875 C 3.132812 -8.671875 2.734375 -8.546875 2.421875 -8.296875 C 2.117188 -8.054688 1.96875 -7.703125 1.96875 -7.234375 C 1.96875 -6.960938 2.046875 -6.71875 2.203125 -6.5 C 2.367188 -6.289062 2.578125 -6.113281 2.828125 -5.96875 C 3.085938 -5.820312 3.367188 -5.675781 3.671875 -5.53125 C 3.984375 -5.394531 4.289062 -5.242188 4.59375 -5.078125 C 4.90625 -4.910156 5.1875 -4.722656 5.4375 -4.515625 C 5.695312 -4.304688 5.90625 -4.035156 6.0625 -3.703125 C 6.226562 -3.378906 6.3125 -3.003906 6.3125 -2.578125 C 6.3125 -1.691406 6 -1.015625 5.375 -0.546875 C 4.75 -0.078125 3.976562 0.15625 3.0625 0.15625 C 2.207031 0.15625 1.328125 -0.078125 0.421875 -0.546875 Z M 0.421875 -0.546875 "/></g></g></g><g fill="#000000" fill-opacity="1"><g transform="translate(214.429081, 283.046876)"><g><path d="M 6.609375 0 L 1.125 0 L 1.125 -8.609375 C 1.125 -8.617188 1.109375 -8.6875 1.078125 -8.8125 C 1.046875 -8.945312 1.015625 -9.082031 0.984375 -9.21875 C 0.953125 -9.363281 0.9375 -9.445312 0.9375 -9.46875 L 6.609375 -9.46875 L 6.609375 -8.5625 L 2.328125 -8.5625 L 2.328125 -5.296875 L 5.65625 -5.296875 L 5.65625 -4.421875 L 2.328125 -4.421875 L 2.328125 -0.890625 L 6.609375 -0.890625 Z M 6.609375 0 "/></g></g></g><g fill="#000000" fill-opacity="1"><g transform="translate(223.071887, 283.046876)"><g><path d="M 7.578125 0 L 6.078125 0 L 2.328125 -4.921875 L 2.328125 0 L 1.125 0 L 1.125 -8.609375 C 1.125 -8.617188 1.109375 -8.6875 1.078125 -8.8125 C 1.046875 -8.945312 1.015625 -9.082031 0.984375 -9.21875 C 0.953125 -9.363281 0.9375 -9.445312 0.9375 -9.46875 L 2.328125 -9.46875 L 2.328125 -5.234375 L 6.078125 -9.46875 L 7.34375 -9.46875 L 3.609375 -5.25 Z M 7.578125 0 "/></g></g></g><g fill="#000000" fill-opacity="1"><g transform="translate(232.169551, 283.046876)"><g><path d="M 4.78125 0.140625 C 4.09375 0.140625 3.476562 0.0078125 2.9375 -0.25 C 2.394531 -0.507812 1.957031 -0.863281 1.625 -1.3125 C 1.289062 -1.769531 1.035156 -2.285156 0.859375 -2.859375 C 0.679688 -3.441406 0.59375 -4.0625 0.59375 -4.71875 C 0.59375 -6.101562 0.953125 -7.257812 1.671875 -8.1875 C 2.398438 -9.125 3.441406 -9.59375 4.796875 -9.59375 C 6.140625 -9.59375 7.171875 -9.125 7.890625 -8.1875 C 8.617188 -7.257812 8.984375 -6.101562 8.984375 -4.71875 C 8.984375 -3.820312 8.832031 -3.015625 8.53125 -2.296875 C 8.238281 -1.578125 7.769531 -0.988281 7.125 -0.53125 C 6.476562 -0.0820312 5.695312 0.140625 4.78125 0.140625 Z M 7.71875 -4.71875 C 7.71875 -5.207031 7.664062 -5.675781 7.5625 -6.125 C 7.457031 -6.582031 7.296875 -7.003906 7.078125 -7.390625 C 6.867188 -7.785156 6.566406 -8.097656 6.171875 -8.328125 C 5.785156 -8.566406 5.328125 -8.6875 4.796875 -8.6875 C 4.265625 -8.6875 3.800781 -8.566406 3.40625 -8.328125 C 3.019531 -8.097656 2.71875 -7.78125 2.5 -7.375 C 2.289062 -6.976562 2.132812 -6.554688 2.03125 -6.109375 C 1.9375 -5.671875 1.890625 -5.203125 1.890625 -4.703125 C 1.890625 -4.210938 1.9375 -3.742188 2.03125 -3.296875 C 2.132812 -2.847656 2.289062 -2.425781 2.5 -2.03125 C 2.71875 -1.632812 3.019531 -1.316406 3.40625 -1.078125 C 3.800781 -0.847656 4.265625 -0.734375 4.796875 -0.734375 C 5.328125 -0.734375 5.785156 -0.847656 6.171875 -1.078125 C 6.566406 -1.316406 6.875 -1.632812 7.09375 -2.03125 C 7.3125 -2.425781 7.46875 -2.847656 7.5625 -3.296875 C 7.664062 -3.742188 7.71875 -4.21875 7.71875 -4.71875 Z M 7.71875 -4.71875 "/></g></g></g><g fill="#000000" fill-opacity="1"><g transform="translate(243.255602, 283.046876)"><g><path d="M 6.3125 0 L 1.125 0 L 1.125 -8.609375 C 1.125 -8.617188 1.109375 -8.6875 1.078125 -8.8125 C 1.046875 -8.945312 1.015625 -9.082031 0.984375 -9.21875 C 0.953125 -9.363281 0.9375 -9.445312 0.9375 -9.46875 L 2.328125 -9.46875 L 2.328125 -0.890625 L 6.3125 -0.890625 Z M 6.3125 0 "/></g></g></g><g fill="#000000" fill-opacity="1"><g transform="translate(251.44354, 283.046876)"><g><path d="M 7.984375 0 L 6.640625 0 L 5.546875 -3.25 L 2.4375 -3.25 L 1.328125 0 L 0.234375 0 L 3.515625 -9.46875 L 4.703125 -9.46875 Z M 5.25 -4.140625 L 4 -7.875 L 2.734375 -4.140625 Z M 5.25 -4.140625 "/></g></g></g><g fill="#000000" fill-opacity="1"><g transform="translate(261.15202, 283.046876)"><g><path d="M 8.15625 0 L 6.9375 0 L 6.9375 -4.46875 L 2.34375 -4.46875 L 2.34375 0 L 1.125 0 L 1.125 -8.609375 C 1.125 -8.617188 1.109375 -8.6875 1.078125 -8.8125 C 1.054688 -8.945312 1.03125 -9.082031 1 -9.21875 C 0.96875 -9.363281 0.953125 -9.445312 0.953125 -9.46875 L 2.34375 -9.46875 L 2.34375 -5.359375 L 6.9375 -5.359375 L 6.9375 -9.46875 L 8.15625 -9.46875 Z M 8.15625 0 "/></g></g></g></svg>